<svg xmlns="http://www.w3.org/2000/svg" viewBox="0 0 600 800" width="600" height="800">
  <rect width="600" height="800" fill="#111111"/>
  <rect x="20" y="20" width="560" height="760" rx="12" fill="none" stroke="#ff9100" stroke-width="6"/>
  <rect x="35" y="35" width="530" height="730" rx="8" fill="none" stroke="#222" stroke-width="3"/>
  <rect x="50" y="50" width="500" height="120" rx="8" fill="#ff9100"/>
  <text x="300" y="115" text-anchor="middle" font-family="Arial, sans-serif" font-size="36" font-weight="bold" fill="#fff">GITAM UNIVERSITY</text>
  <rect x="50" y="190" width="500" height="370" rx="8" fill="#1a1a1a"/>
  <text x="300" y="310" text-anchor="middle" font-family="Arial, sans-serif" font-size="48" font-weight="bold" fill="#ff9100">SPORTS COMPLEX</text>
  <text x="300" y="370" text-anchor="middle" font-family="Arial, sans-serif" font-size="18" fill="#888">Indoor Courts &amp; Gymnasium</text>
  <line x1="100" y1="400" x2="500" y2="400" stroke="#ff9100" stroke-width="2" opacity="0.3"/>
  <line x1="100" y1="410" x2="500" y2="410" stroke="#ff9100" stroke-width="1" opacity="0.15"/>
  <rect x="50" y="580" width="500" height="190" rx="8" fill="#151515"/>
  <rect x="70" y="600" width="460" height="60" rx="6" fill="#222"/>
  <text x="300" y="635" text-anchor="middle" font-family="Arial, sans-serif" font-size="16" fill="#ff9100">🏟️ Scan to meet Maya here</text>
  <rect x="100" y="690" width="400" height="3" fill="#ff9100" opacity="0.2"/>
  <rect x="150" y="710" width="60" height="6" fill="#ff9100" opacity="0.4" rx="3"/>
  <rect x="230" y="710" width="60" height="6" fill="#ff9100" opacity="0.3" rx="3"/>
  <rect x="310" y="710" width="60" height="6" fill="#ff9100" opacity="0.4" rx="3"/>
  <rect x="390" y="710" width="60" height="6" fill="#ff9100" opacity="0.3" rx="3"/>
</svg>
