<svg xmlns="http://www.w3.org/2000/svg" viewBox="0 0 600 800" width="600" height="800">
  <rect width="600" height="800" fill="#1a1a2e"/>
  <rect x="20" y="20" width="560" height="760" rx="12" fill="none" stroke="#e94560" stroke-width="6"/>
  <rect x="35" y="35" width="530" height="730" rx="8" fill="none" stroke="#0f3460" stroke-width="3"/>
  <rect x="50" y="50" width="500" height="120" rx="8" fill="#e94560"/>
  <text x="300" y="115" text-anchor="middle" font-family="Arial, sans-serif" font-size="36" font-weight="bold" fill="#fff">GITAM UNIVERSITY</text>
  <rect x="50" y="190" width="500" height="370" rx="8" fill="#16213e"/>
  <text x="300" y="310" text-anchor="middle" font-family="Arial, sans-serif" font-size="52" font-weight="bold" fill="#e94560">LIBRARY</text>
  <text x="300" y="370" text-anchor="middle" font-family="Arial, sans-serif" font-size="20" fill="#aaa">Central Library &amp; Resource Center</text>
  <circle cx="180" cy="320" r="60" fill="none" stroke="#e94560" stroke-width="4"/>
  <circle cx="420" cy="320" r="60" fill="none" stroke="#e94560" stroke-width="4"/>
  <circle cx="180" cy="320" r="30" fill="#e94560" opacity="0.3"/>
  <circle cx="420" cy="320" r="30" fill="#e94560" opacity="0.3"/>
  <pattern id="grid-lib" width="60" height="60" patternUnits="userSpaceOnUse">
    <path d="M 60 0 L 0 0 0 60" fill="none" stroke="#e94560" stroke-width="1" opacity="0.15"/>
  </pattern>
  <rect x="50" y="580" width="500" height="190" rx="8" fill="url(#grid-lib)"/>
  <rect x="70" y="600" width="460" height="60" rx="6" fill="#0f3460"/>
  <text x="300" y="635" text-anchor="middle" font-family="Arial, sans-serif" font-size="16" fill="#e94560">📚 Scan to meet Maya here</text>
  <rect x="70" y="680" width="460" height="4" fill="#e94560" opacity="0.3"/>
  <rect x="100" y="700" width="80" height="40" rx="4" fill="#e94560"/>
  <rect x="200" y="700" width="80" height="40" rx="4" fill="#e94560"/>
  <rect x="300" y="700" width="80" height="40" rx="4" fill="#e94560"/>
  <rect x="420" y="700" width="80" height="40" rx="4" fill="#e94560"/>
</svg>