<svg xmlns="http://www.w3.org/2000/svg" viewBox="0 0 600 800" width="600" height="800">
  <rect width="600" height="800" fill="#0a0a23"/>
  <rect x="20" y="20" width="560" height="760" rx="12" fill="none" stroke="#00bcd4" stroke-width="6"/>
  <rect x="35" y="35" width="530" height="730" rx="8" fill="none" stroke="#1a1a4e" stroke-width="3"/>
  <rect x="50" y="50" width="500" height="120" rx="8" fill="#00bcd4"/>
  <text x="300" y="115" text-anchor="middle" font-family="Arial, sans-serif" font-size="36" font-weight="bold" fill="#fff">GITAM UNIVERSITY</text>
  <rect x="50" y="190" width="500" height="370" rx="8" fill="#0f0f3d"/>
  <text x="300" y="310" text-anchor="middle" font-family="Arial, sans-serif" font-size="44" font-weight="bold" fill="#00bcd4">CS DEPARTMENT</text>
  <text x="300" y="370" text-anchor="middle" font-family="Arial, sans-serif" font-size="20" fill="#888">Computer Science &amp; Engineering</text>
  <rect x="150" y="240" width="40" height="40" fill="none" stroke="#00bcd4" stroke-width="3"/>
  <rect x="410" y="240" width="40" height="40" fill="none" stroke="#00bcd4" stroke-width="3"/>
  <rect x="150" y="360" width="40" height="40" fill="none" stroke="#00bcd4" stroke-width="3"/>
  <rect x="410" y="360" width="40" height="40" fill="none" stroke="#00bcd4" stroke-width="3"/>
  <line x1="150" y1="240" x2="190" y2="280" stroke="#00bcd4" stroke-width="2" opacity="0.4"/>
  <line x1="410" y1="240" x2="450" y2="280" stroke="#00bcd4" stroke-width="2" opacity="0.4"/>
  <pattern id="dot-cs" width="30" height="30" patternUnits="userSpaceOnUse">
    <circle cx="15" cy="15" r="2" fill="#00bcd4" opacity="0.15"/>
  </pattern>
  <rect x="50" y="580" width="500" height="190" rx="8" fill="url(#dot-cs)"/>
  <rect x="70" y="600" width="460" height="60" rx="6" fill="#1a1a4e"/>
  <text x="300" y="635" text-anchor="middle" font-family="Arial, sans-serif" font-size="16" fill="#00bcd4">💻 Scan to meet Maya here</text>
  <circle cx="140" cy="710" r="15" fill="none" stroke="#00bcd4" stroke-width="2"/>
  <circle cx="300" cy="710" r="15" fill="none" stroke="#00bcd4" stroke-width="2"/>
  <circle cx="460" cy="710" r="15" fill="none" stroke="#00bcd4" stroke-width="2"/>
</svg>