<svg xmlns="http://www.w3.org/2000/svg" viewBox="0 0 600 800" width="600" height="800">
  <rect width="600" height="800" fill="#1b1b1b"/>
  <rect x="20" y="20" width="560" height="760" rx="12" fill="none" stroke="#ff6b35" stroke-width="6"/>
  <rect x="35" y="35" width="530" height="730" rx="8" fill="none" stroke="#333" stroke-width="3"/>
  <rect x="50" y="50" width="500" height="120" rx="8" fill="#ff6b35"/>
  <text x="300" y="115" text-anchor="middle" font-family="Arial, sans-serif" font-size="36" font-weight="bold" fill="#fff">GITAM UNIVERSITY</text>
  <rect x="50" y="190" width="500" height="370" rx="8" fill="#252525"/>
  <text x="300" y="310" text-anchor="middle" font-family="Arial, sans-serif" font-size="52" font-weight="bold" fill="#ff6b35">CANTEEN</text>
  <text x="300" y="370" text-anchor="middle" font-family="Arial, sans-serif" font-size="20" fill="#aaa">Food Court &amp; Student Hub</text>
  <polygon points="180,260 220,340 140,340" fill="none" stroke="#ff6b35" stroke-width="4"/>
  <polygon points="420,260 460,340 380,340" fill="none" stroke="#ff6b35" stroke-width="4"/>
  <rect x="170" y="280" width="20" height="20" fill="#ff6b35" opacity="0.3"/>
  <rect x="410" y="280" width="20" height="20" fill="#ff6b35" opacity="0.3"/>
  <pattern id="tri-cant" width="40" height="40" patternUnits="userSpaceOnUse">
    <polygon points="20,0 40,20 0,20" fill="none" stroke="#ff6b35" stroke-width="1" opacity="0.12"/>
  </pattern>
  <rect x="50" y="580" width="500" height="190" rx="8" fill="url(#tri-cant)"/>
  <rect x="70" y="600" width="460" height="60" rx="6" fill="#333"/>
  <text x="300" y="635" text-anchor="middle" font-family="Arial, sans-serif" font-size="16" fill="#ff6b35">🍽️ Scan to meet Maya here</text>
  <polygon points="120,690 160,690 140,720" fill="#ff6b35"/>
  <polygon points="280,690 320,690 300,720" fill="#ff6b35"/>
  <polygon points="440,690 480,690 460,720" fill="#ff6b35"/>
</svg>