<svg viewBox="0 0 800 600" xmlns="http://www.w3.org/2000/svg">
  <rect width="800" height="600" fill="#1a1a2e"/>
  <rect x="40" y="30" width="720" height="540" fill="#16213e" stroke="#00bcd4" stroke-width="2" rx="6"/>

  <rect x="60" y="50" width="300" height="130" fill="#0f3460" stroke="#2196F3" stroke-width="1.5" rx="4"/>
  <text x="210" y="95" fill="#2196F3" font-size="14" text-anchor="middle" font-weight="bold">Registrar Office</text>
  <text x="210" y="115" fill="#aaa" font-size="10" text-anchor="middle">Admissions • Transcripts • Verifications</text>
  <text x="210" y="135" fill="#888" font-size="9" text-anchor="middle">Counter 1–3</text>

  <rect x="390" y="50" width="170" height="130" fill="#0f3460" stroke="#FF8C00" stroke-width="1.5" rx="4"/>
  <text x="475" y="95" fill="#FF8C00" font-size="13" text-anchor="middle" font-weight="bold">Fees Office</text>
  <text x="475" y="115" fill="#aaa" font-size="10" text-anchor="middle">Tuition • Scholarships</text>
  <text x="475" y="135" fill="#888" font-size="9" text-anchor="middle">Counter 4–5</text>

  <rect x="590" y="50" width="130" height="60" fill="#1a1a2e" stroke="#4CAF50" stroke-width="1" rx="2"/>
  <text x="655" y="80" fill="#4CAF50" font-size="8" text-anchor="middle">WC</text>
  <text x="655" y="95" fill="#666" font-size="7" text-anchor="middle">Gents</text>

  <rect x="590" y="120" width="130" height="60" fill="#1a1a2e" stroke="#4CAF50" stroke-width="1" rx="2"/>
  <text x="655" y="150" fill="#4CAF50" font-size="8" text-anchor="middle">WC</text>
  <text x="655" y="165" fill="#666" font-size="7" text-anchor="middle">Ladies</text>

  <rect x="60" y="210" width="220" height="130" fill="#0f3460" stroke="#e94560" stroke-width="1.5" rx="4"/>
  <text x="170" y="255" fill="#e94560" font-size="13" text-anchor="middle" font-weight="bold">Exam Cell</text>
  <text x="170" y="275" fill="#aaa" font-size="10" text-anchor="middle">Hall Tickets • Results</text>
  <text x="170" y="295" fill="#888" font-size="9" text-anchor="middle">Semester Schedules</text>

  <rect x="310" y="210" width="220" height="130" fill="#0f3460" stroke="#9C27B0" stroke-width="1.5" rx="4"/>
  <text x="420" y="255" fill="#9C27B0" font-size="13" text-anchor="middle" font-weight="bold">HR Department</text>
  <text x="420" y="275" fill="#aaa" font-size="10" text-anchor="middle">Faculty • Staff Affairs</text>
  <text x="420" y="295" fill="#888" font-size="9" text-anchor="middle">Payroll • Leave</text>

  <rect x="560" y="210" width="160" height="60" fill="#1a1a2e" stroke="#f44336" stroke-width="1.5" rx="3"/>
  <text x="640" y="240" fill="#f44336" font-size="9" text-anchor="middle">PRINTER</text>
  <text x="640" y="255" fill="#888" font-size="8" text-anchor="middle">Self Service</text>

  <rect x="560" y="280" width="160" height="60" fill="#533483" stroke="#ffd700" stroke-width="1" rx="2"/>
  <text x="640" y="310" fill="#ffd700" font-size="9" text-anchor="middle">STAIRS</text>
  <text x="640" y="325" fill="#888" font-size="8" text-anchor="middle">→ First Floor</text>

  <rect x="60" y="370" width="300" height="110" fill="#0f3460" stroke="#2196F3" stroke-width="1.5" rx="4"/>
  <text x="210" y="410" fill="#2196F3" font-size="14" text-anchor="middle" font-weight="bold">Vice Chancellor Office</text>
  <text x="210" y="430" fill="#aaa" font-size="10" text-anchor="middle">By Appointment Only</text>
  <text x="210" y="450" fill="#888" font-size="9" text-anchor="middle">Secretary: Ms. Lakshmi</text>

  <rect x="390" y="370" width="240" height="110" fill="#0f3460" stroke="#FF8C00" stroke-width="1.5" rx="4"/>
  <text x="510" y="410" fill="#FF8C00" font-size="13" text-anchor="middle" font-weight="bold">Meeting Room</text>
  <text x="510" y="430" fill="#aaa" font-size="10" text-anchor="middle">Academic Council • Board Meetings</text>
  <text x="510" y="450" fill="#888" font-size="9" text-anchor="middle">Capacity: 20</text>

  <rect x="60" y="510" width="180" height="40" fill="#4CAF50" stroke="#fff" stroke-width="2" rx="6"/>
  <text x="150" y="535" fill="#fff" font-size="13" text-anchor="middle" font-weight="bold">MAIN ENTRY</text>

  <rect x="270" y="510" width="210" height="40" fill="#0f3460" stroke="#888" stroke-width="1" rx="3"/>
  <text x="375" y="535" fill="#888" font-size="9" text-anchor="middle">Information / Reception</text>

  <rect x="510" y="510" width="120" height="40" fill="#1a1a2e" stroke="#9C27B0" stroke-width="1" rx="3"/>
  <text x="570" y="535" fill="#9C27B0" font-size="8" text-anchor="middle">Security Desk</text>
</svg>
