<svg viewBox="0 0 800 600" xmlns="http://www.w3.org/2000/svg">
  <rect width="800" height="600" fill="#1a1a2e"/>
  <rect x="40" y="30" width="720" height="540" fill="#16213e" stroke="#00bcd4" stroke-width="2" rx="6"/>

  <rect x="60" y="50" width="220" height="150" fill="#0f3460" stroke="#e94560" stroke-width="1.5" rx="4"/>
  <text x="170" y="100" fill="#e94560" font-size="13" text-anchor="middle" font-weight="bold">Lab 101</text>
  <text x="170" y="120" fill="#aaa" font-size="10" text-anchor="middle">DBMS Lab — 30 seats</text>

  <rect x="300" y="50" width="220" height="150" fill="#0f3460" stroke="#e94560" stroke-width="1.5" rx="4"/>
  <text x="410" y="100" fill="#e94560" font-size="13" text-anchor="middle" font-weight="bold">Lab 102</text>
  <text x="410" y="120" fill="#aaa" font-size="10" text-anchor="middle">Networks Lab — 30 seats</text>

  <rect x="540" y="50" width="40" height="150" fill="#533483" stroke="#ffd700" stroke-width="1" rx="2"/>
  <text x="560" y="130" fill="#ffd700" font-size="9" text-anchor="middle">S</text>
  <text x="560" y="145" fill="#ffd700" font-size="8" text-anchor="middle">T</text>
  <text x="560" y="160" fill="#ffd700" font-size="8" text-anchor="middle">R</text>
  <text x="560" y="175" fill="#ffd700" font-size="8" text-anchor="middle">S</text>

  <rect x="600" y="50" width="50" height="70" fill="#533483" stroke="#ffd700" stroke-width="1" rx="2"/>
  <text x="625" y="90" fill="#ffd700" font-size="8" text-anchor="middle">ELV</text>

  <rect x="670" y="50" width="50" height="70" fill="#1a1a2e" stroke="#4CAF50" stroke-width="1" rx="2"/>
  <text x="695" y="80" fill="#4CAF50" font-size="8" text-anchor="middle">WC</text>

  <rect x="60" y="230" width="320" height="140" fill="#0f3460" stroke="#2196F3" stroke-width="1.5" rx="4"/>
  <text x="220" y="280" fill="#2196F3" font-size="14" text-anchor="middle" font-weight="bold">Lecture Hall A</text>
  <text x="220" y="300" fill="#aaa" font-size="10" text-anchor="middle">Capacity: 60</text>
  <text x="220" y="320" fill="#888" font-size="9" text-anchor="middle">Data Structures • Algorithms</text>

  <rect x="410" y="230" width="200" height="140" fill="#0f3460" stroke="#FF8C00" stroke-width="1.5" rx="4"/>
  <text x="510" y="280" fill="#FF8C00" font-size="12" text-anchor="middle" font-weight="bold">Faculty Room</text>
  <text x="510" y="300" fill="#aaa" font-size="10" text-anchor="middle">Dr. Sharma • Dr. Patel</text>
  <text x="510" y="320" fill="#888" font-size="9" text-anchor="middle">Office Hours: 10AM–4PM</text>

  <rect x="640" y="230" width="90" height="65" fill="#1a1a2e" stroke="#f44336" stroke-width="1.5" rx="3"/>
  <text x="685" y="265" fill="#f44336" font-size="9" text-anchor="middle">SERVER</text>

  <rect x="640" y="315" width="90" height="55" fill="#1a1a2e" stroke="#9C27B0" stroke-width="1.5" rx="3"/>
  <text x="685" y="345" fill="#9C27B0" font-size="9" text-anchor="middle">PRINTER</text>

  <rect x="60" y="400" width="140" height="60" fill="#4CAF50" stroke="#fff" stroke-width="2" rx="6"/>
  <text x="130" y="435" fill="#fff" font-size="14" text-anchor="middle" font-weight="bold">ENTRANCE</text>

  <rect x="230" y="400" width="470" height="60" fill="#0f3460" stroke="#888" stroke-width="1" rx="4"/>
  <text x="465" y="435" fill="#888" font-size="10" text-anchor="middle">Corridor → Lab 103, HOD Office</text>
</svg>
