<svg viewBox="0 0 800 600" xmlns="http://www.w3.org/2000/svg">
  <rect width="800" height="600" fill="#1a1a2e"/>
  <rect x="40" y="30" width="720" height="540" fill="#16213e" stroke="#00bcd4" stroke-width="2" rx="6"/>

  <rect x="60" y="50" width="300" height="160" fill="#0f3460" stroke="#2196F3" stroke-width="1.5" rx="4"/>
  <text x="210" y="100" fill="#2196F3" font-size="14" text-anchor="middle" font-weight="bold">Reading Hall</text>
  <text x="210" y="120" fill="#aaa" font-size="10" text-anchor="middle">Silent Study Zone — 80 seats</text>
  <text x="210" y="140" fill="#888" font-size="9" text-anchor="middle">Open: 6AM – 10PM</text>

  <rect x="390" y="50" width="200" height="160" fill="#0f3460" stroke="#9C27B0" stroke-width="1.5" rx="4"/>
  <text x="490" y="100" fill="#9C27B0" font-size="13" text-anchor="middle" font-weight="bold">Book Stacks</text>
  <text x="490" y="120" fill="#aaa" font-size="10" text-anchor="middle">Section A–F (Ground)</text>
  <text x="490" y="140" fill="#888" font-size="9" text-anchor="middle">Section G–L (First Floor)</text>

  <rect x="620" y="50" width="100" height="70" fill="#1a1a2e" stroke="#4CAF50" stroke-width="1" rx="2"/>
  <text x="670" y="80" fill="#4CAF50" font-size="8" text-anchor="middle">WC</text>
  <text x="670" y="95" fill="#666" font-size="7" text-anchor="middle">Gents</text>

  <rect x="620" y="140" width="100" height="70" fill="#1a1a2e" stroke="#4CAF50" stroke-width="1" rx="2"/>
  <text x="670" y="170" fill="#4CAF50" font-size="8" text-anchor="middle">WC</text>
  <text x="670" y="185" fill="#666" font-size="7" text-anchor="middle">Ladies</text>

  <rect x="60" y="240" width="220" height="140" fill="#0f3460" stroke="#FF8C00" stroke-width="1.5" rx="4"/>
  <text x="170" y="285" fill="#FF8C00" font-size="13" text-anchor="middle" font-weight="bold">Digital Library</text>
  <text x="170" y="305" fill="#aaa" font-size="10" text-anchor="middle">20 PCs • Printing • Scanning</text>
  <text x="170" y="325" fill="#888" font-size="9" text-anchor="middle">Online Journals • e-Books</text>

  <rect x="310" y="240" width="220" height="140" fill="#0f3460" stroke="#e94560" stroke-width="1.5" rx="4"/>
  <text x="420" y="285" fill="#e94560" font-size="13" text-anchor="middle" font-weight="bold">Reference Section</text>
  <text x="420" y="305" fill="#aaa" font-size="10" text-anchor="middle">Encyclopedias • Dictionaries</text>
  <text x="420" y="325" fill="#888" font-size="9" text-anchor="middle">Don't Check Out</text>

  <rect x="560" y="240" width="160" height="65" fill="#1a1a2e" stroke="#f44336" stroke-width="1.5" rx="3"/>
  <text x="640" y="275" fill="#f44336" font-size="9" text-anchor="middle">Librarian</text>
  <text x="640" y="290" fill="#888" font-size="8" text-anchor="middle">Mr. Rao</text>

  <rect x="560" y="320" width="160" height="60" fill="#533483" stroke="#ffd700" stroke-width="1" rx="2"/>
  <text x="640" y="350" fill="#ffd700" font-size="9" text-anchor="middle" font-weight="bold">EXIT</text>
  <text x="640" y="365" fill="#888" font-size="8" text-anchor="middle">→ Canteen</text>

  <rect x="60" y="410" width="660" height="60" fill="#0f3460" stroke="#888" stroke-width="1" rx="4"/>
  <text x="390" y="445" fill="#888" font-size="11" text-anchor="middle">Periodicals • Newspapers • Magazine Rack</text>

  <rect x="60" y="490" width="180" height="50" fill="#4CAF50" stroke="#fff" stroke-width="2" rx="6"/>
  <text x="150" y="520" fill="#fff" font-size="14" text-anchor="middle" font-weight="bold">MAIN ENTRY</text>

  <rect x="270" y="490" width="200" height="50" fill="#0f3460" stroke="#2196F3" stroke-width="1" rx="3"/>
  <text x="370" y="520" fill="#2196F3" font-size="10" text-anchor="middle">Issue / Return Counter</text>

  <rect x="500" y="490" width="100" height="50" fill="#1a1a2e" stroke="#9C27B0" stroke-width="1" rx="3"/>
  <text x="550" y="520" fill="#9C27B0" font-size="9" text-anchor="middle">Self Checkout</text>
</svg>
